<?xml version="1.0" encoding="UTF-8" standalone="no"?>
<!DOCTYPE svg PUBLIC "-//W3C//DTD SVG 1.1//EN" "http://www.w3.org/Graphics/SVG/1.1/DTD/svg11.dtd">
<!-- Created with Vectornator (http://vectornator.io/) -->
<svg height="100%" stroke-miterlimit="10" style="fill-rule:nonzero;clip-rule:evenodd;stroke-linecap:round;stroke-linejoin:round;" version="1.1" viewBox="0 0 738.196 44.7182" width="100%" xml:space="preserve"
  xmlns="http://www.w3.org/2000/svg"
  xmlns:xlink="http://www.w3.org/1999/xlink">
  <defs/>
  <clipPath id="ArtboardFrame">
    <rect height="44.7182" width="738.196" x="0" y="0"/>
  </clipPath>
  <g clip-path="url(#ArtboardFrame)" id="Layer-1">
    <path d="M39.49 22.5028C39.49 26.2228 38.8 29.4328 37.42 32.1328C36.04 34.8328 34.22 37.0528 31.96 38.7928C29.7 40.5328 27.15 41.8128 24.31 42.6328C21.47 43.4528 18.59 43.8628 15.67 43.8628L-0.169996 43.8628L-0.169996 1.38279L15.19 1.38279C18.19 1.38279 21.15 1.73279 24.07 2.43279C26.99 3.13279 29.59 4.29279 31.87 5.91279C34.15 7.53279 35.99 9.70279 37.39 12.4228C38.79 15.1428 39.49 18.5028 39.49 22.5028ZM28.81 22.5028C28.81 20.1028 28.42 18.1128 27.64 16.5328C26.86 14.9528 25.82 13.6928 24.52 12.7528C23.22 11.8128 21.74 11.1428 20.08 10.7428C18.42 10.3428 16.71 10.1428 14.95 10.1428L9.85 10.1428L9.85 34.9828L14.71 34.9828C16.55 34.9828 18.32 34.7728 20.02 34.3528C21.72 33.9328 23.22 33.2428 24.52 32.2828C25.82 31.3228 26.86 30.0428 27.64 28.4428C28.42 26.8428 28.81 24.8628 28.81 22.5028Z" fill="currentColor" fill-rule="nonzero" opacity="0.986" stroke="none"/>
    <path d="M73.63 43.8628L70.33 35.5228L53.89 35.5228L50.77 43.8628L39.61 43.8628L57.43 1.38279L67.39 1.38279L85.03 43.8628L73.63 43.8628ZM62.23 12.7228L56.83 27.3028L67.51 27.3028L62.23 12.7228Z" fill="currentColor" fill-rule="nonzero" opacity="0.986" stroke="none"/>
    <path d="M105.61 25.8628L105.61 43.8628L95.35 43.8628L95.35 25.8628L79.39 1.38279L91.81 1.38279L100.87 17.1028L109.93 1.38279L121.93 1.38279L105.61 25.8628Z" fill="currentColor" fill-rule="nonzero" opacity="0.986" stroke="none"/>
    <path d="M150.31 43.8628L147.01 35.5228L130.57 35.5228L127.45 43.8628L116.29 43.8628L134.11 1.38279L144.07 1.38279L161.71 43.8628L150.31 43.8628ZM138.91 12.7228L133.51 27.3028L144.19 27.3028L138.91 12.7228Z" fill="#eb7a00" fill-rule="nonzero" opacity="0.986" stroke="none"/>
    <path d="M192.25 43.8628L175.15 16.0828L174.97 16.0828L175.21 43.8628L165.25 43.8628L165.25 1.38279L176.95 1.38279L193.99 29.1028L194.17 29.1028L193.93 1.38279L203.89 1.38279L203.89 43.8628L192.25 43.8628Z" fill="#eb7a00" fill-rule="nonzero" opacity="0.986" stroke="none"/>
    <path d="M252.31 22.5028C252.31 26.2228 251.62 29.4328 250.24 32.1328C248.86 34.8328 247.04 37.0528 244.78 38.7928C242.52 40.5328 239.97 41.8128 237.13 42.6328C234.29 43.4528 231.41 43.8628 228.49 43.8628L212.65 43.8628L212.65 1.38279L228.01 1.38279C231.01 1.38279 233.97 1.73279 236.89 2.43279C239.81 3.13279 242.41 4.29279 244.69 5.91279C246.97 7.53279 248.81 9.70279 250.21 12.4228C251.61 15.1428 252.31 18.5028 252.31 22.5028ZM241.63 22.5028C241.63 20.1028 241.24 18.1128 240.46 16.5328C239.68 14.9528 238.64 13.6928 237.34 12.7528C236.04 11.8128 234.56 11.1428 232.9 10.7428C231.24 10.3428 229.53 10.1428 227.77 10.1428L222.67 10.1428L222.67 34.9828L227.53 34.9828C229.37 34.9828 231.14 34.7728 232.84 34.3528C234.54 33.9328 236.04 33.2428 237.34 32.2828C238.64 31.3228 239.68 30.0428 240.46 28.4428C241.24 26.8428 241.63 24.8628 241.63 22.5028Z" fill="#eb7a00" fill-rule="nonzero" opacity="0.986" stroke="none"/>
    <path d="M286.09 43.8628L268.99 16.0828L268.81 16.0828L269.05 43.8628L259.09 43.8628L259.09 1.38279L270.79 1.38279L287.83 29.1028L288.01 29.1028L287.77 1.38279L297.73 1.38279L297.73 43.8628L286.09 43.8628Z" fill="currentColor" fill-rule="nonzero" opacity="0.986" stroke="none"/>
    <path d="M306.49 43.8628L306.49 1.38279L316.81 1.38279L316.81 43.8628L306.49 43.8628Z" fill="currentColor" fill-rule="nonzero" opacity="0.986" stroke="none"/>
    <path d="M363.31 41.2828C361.23 42.3628 358.8 43.2428 356.02 43.9228C353.24 44.6028 350.21 44.9428 346.93 44.9428C343.53 44.9428 340.4 44.4028 337.54 43.3228C334.68 42.2428 332.22 40.7228 330.16 38.7628C328.1 36.8028 326.49 34.4528 325.33 31.7128C324.17 28.9728 323.59 25.9228 323.59 22.5628C323.59 19.1628 324.18 16.0828 325.36 13.3228C326.54 10.5628 328.17 8.21279 330.25 6.27279C332.33 4.33279 334.77 2.84279 337.57 1.80279C340.37 0.76279 343.39 0.24279 346.63 0.24279C349.99 0.24279 353.11 0.75279 355.99 1.77279C358.87 2.79279 361.21 4.16279 363.01 5.88279L356.53 13.2628C355.53 12.1028 354.21 11.1528 352.57 10.4128C350.93 9.67279 349.07 9.30279 346.99 9.30279C345.19 9.30279 343.53 9.63279 342.01 10.2928C340.49 10.9528 339.17 11.8728 338.05 13.0528C336.93 14.2328 336.06 15.6328 335.44 17.2528C334.82 18.8728 334.51 20.6428 334.51 22.5628C334.51 24.5228 334.79 26.3228 335.35 27.9628C335.91 29.6028 336.74 31.0128 337.84 32.1928C338.94 33.3728 340.3 34.2928 341.92 34.9528C343.54 35.6128 345.39 35.9428 347.47 35.9428C348.67 35.9428 349.81 35.8528 350.89 35.6728C351.97 35.4928 352.97 35.2028 353.89 34.8028L353.89 27.0628L345.79 27.0628L345.79 18.7828L363.31 18.7828L363.31 41.2828Z" fill="currentColor" fill-rule="nonzero" opacity="0.986" stroke="none"/>
    <path d="M398.53 43.8628L398.53 26.1028L381.97 26.1028L381.97 43.8628L371.71 43.8628L371.71 1.38279L381.97 1.38279L381.97 17.4628L398.53 17.4628L398.53 1.38279L408.79 1.38279L408.79 43.8628L398.53 43.8628Z" fill="currentColor" fill-rule="nonzero" opacity="0.986" stroke="none"/>
    <path d="M435.73 10.1428L435.73 43.8628L425.47 43.8628L425.47 10.1428L413.47 10.1428L413.47 1.38279L447.73 1.38279L447.73 10.1428L435.73 10.1428Z" fill="currentColor" fill-rule="nonzero" opacity="0.986" stroke="none"/>
    <path d="M497.41 43.8628L487.27 43.8628L478.87 15.1228L478.69 15.1228L470.29 43.8628L460.09 43.8628L448.03 1.38279L459.07 1.38279L465.79 29.6428L465.97 29.6428L473.53 1.38279L484.21 1.38279L491.83 29.6428L492.01 29.6428L498.85 1.38279L509.53 1.38279L497.41 43.8628Z" fill="#eb7a00" fill-rule="nonzero" opacity="0.986" stroke="none"/>
    <path d="M557.47 22.4428C557.47 25.8028 556.89 28.8728 555.73 31.6528C554.57 34.4328 552.96 36.8128 550.9 38.7928C548.84 40.7728 546.39 42.3028 543.55 43.3828C540.71 44.4628 537.63 45.0028 534.31 45.0028C530.99 45.0028 527.92 44.4628 525.1 43.3828C522.28 42.3028 519.84 40.7728 517.78 38.7928C515.72 36.8128 514.11 34.4328 512.95 31.6528C511.79 28.8728 511.21 25.8028 511.21 22.4428C511.21 19.0428 511.79 15.9728 512.95 13.2328C514.11 10.4928 515.72 8.16279 517.78 6.24279C519.84 4.32279 522.28 2.84279 525.1 1.80279C527.92 0.76279 530.99 0.24279 534.31 0.24279C537.63 0.24279 540.71 0.76279 543.55 1.80279C546.39 2.84279 548.84 4.32279 550.9 6.24279C552.96 8.16279 554.57 10.4928 555.73 13.2328C556.89 15.9728 557.47 19.0428 557.47 22.4428ZM546.49 22.4428C546.49 20.6028 546.19 18.8828 545.59 17.2828C544.99 15.6828 544.16 14.3128 543.1 13.1728C542.04 12.0328 540.76 11.1328 539.26 10.4728C537.76 9.81279 536.11 9.48279 534.31 9.48279C532.51 9.48279 530.87 9.81279 529.39 10.4728C527.91 11.1328 526.63 12.0328 525.55 13.1728C524.47 14.3128 523.64 15.6828 523.06 17.2828C522.48 18.8828 522.19 20.6028 522.19 22.4428C522.19 24.3628 522.49 26.1328 523.09 27.7528C523.69 29.3728 524.52 30.7628 525.58 31.9228C526.64 33.0828 527.91 33.9928 529.39 34.6528C530.87 35.3128 532.51 35.6428 534.31 35.6428C536.11 35.6428 537.75 35.3128 539.23 34.6528C540.71 33.9928 541.99 33.0828 543.07 31.9228C544.15 30.7628 544.99 29.3728 545.59 27.7528C546.19 26.1328 546.49 24.3628 546.49 22.4428Z" fill="#eb7a00" fill-rule="nonzero" opacity="0.986" stroke="none"/>
    <path d="M586.99 43.8628L577.81 27.0028L574.33 27.0028L574.33 43.8628L564.25 43.8628L564.25 1.38279L580.45 1.38279C582.49 1.38279 584.48 1.59279 586.42 2.01279C588.36 2.43279 590.1 3.14279 591.64 4.14279C593.18 5.14279 594.41 6.46279 595.33 8.10279C596.25 9.74279 596.71 11.7828 596.71 14.2228C596.71 17.1028 595.93 19.5228 594.37 21.4828C592.81 23.4428 590.65 24.8428 587.89 25.6828L598.99 43.8628L586.99 43.8628ZM586.57 14.4028C586.57 13.4028 586.36 12.5928 585.94 11.9728C585.52 11.3528 584.98 10.8728 584.32 10.5328C583.66 10.1928 582.92 9.96279 582.1 9.84279C581.28 9.72279 580.49 9.66279 579.73 9.66279L574.27 9.66279L574.27 19.5628L579.13 19.5628C579.97 19.5628 580.83 19.4928 581.71 19.3528C582.59 19.2128 583.39 18.9628 584.11 18.6028C584.83 18.2428 585.42 17.7228 585.88 17.0428C586.34 16.3628 586.57 15.4828 586.57 14.4028Z" fill="#eb7a00" fill-rule="nonzero" opacity="0.986" stroke="none"/>
    <path d="M626.47 12.4228C625.59 11.3028 624.44 10.4128 623.02 9.75279C621.6 9.09279 620.23 8.76279 618.91 8.76279C618.23 8.76279 617.54 8.82279 616.84 8.94279C616.14 9.06279 615.51 9.29279 614.95 9.63279C614.39 9.97279 613.92 10.4128 613.54 10.9528C613.16 11.4928 612.97 12.1828 612.97 13.0228C612.97 13.7428 613.12 14.3428 613.42 14.8228C613.72 15.3028 614.16 15.7228 614.74 16.0828C615.32 16.4428 616.01 16.7728 616.81 17.0728C617.61 17.3728 618.51 17.6828 619.51 18.0028C620.95 18.4828 622.45 19.0128 624.01 19.5928C625.57 20.1728 626.99 20.9428 628.27 21.9028C629.55 22.8628 630.61 24.0528 631.45 25.4728C632.29 26.8928 632.71 28.6628 632.71 30.7828C632.71 33.2228 632.26 35.3328 631.36 37.1128C630.46 38.8928 629.25 40.3628 627.73 41.5228C626.21 42.6828 624.47 43.5428 622.51 44.1028C620.55 44.6628 618.53 44.9428 616.45 44.9428C613.41 44.9428 610.47 44.4128 607.63 43.3528C604.79 42.2928 602.43 40.7828 600.55 38.8228L607.27 31.9828C608.31 33.2628 609.68 34.3328 611.38 35.1928C613.08 36.0528 614.77 36.4828 616.45 36.4828C617.21 36.4828 617.95 36.4028 618.67 36.2428C619.39 36.0828 620.02 35.8228 620.56 35.4628C621.1 35.1028 621.53 34.6228 621.85 34.0228C622.17 33.4228 622.33 32.7028 622.33 31.8628C622.33 31.0628 622.13 30.3828 621.73 29.8228C621.33 29.2628 620.76 28.7528 620.02 28.2928C619.28 27.8328 618.36 27.4128 617.26 27.0328C616.16 26.6528 614.91 26.2428 613.51 25.8028C612.15 25.3628 610.82 24.8428 609.52 24.2428C608.22 23.6428 607.06 22.8728 606.04 21.9328C605.02 20.9928 604.2 19.8528 603.58 18.5128C602.96 17.1728 602.65 15.5428 602.65 13.6228C602.65 11.2628 603.13 9.24279 604.09 7.56279C605.05 5.88279 606.31 4.50279 607.87 3.42279C609.43 2.34279 611.19 1.55279 613.15 1.05279C615.11 0.55279 617.09 0.30279 619.09 0.30279C621.49 0.30279 623.94 0.74279 626.44 1.62279C628.94 2.50279 631.13 3.80279 633.01 5.52279L626.47 12.4228Z" fill="#eb7a00" fill-rule="nonzero" opacity="0.986" stroke="none"/>
    <path d="M666.31 43.8628L666.31 26.1028L649.75 26.1028L649.75 43.8628L639.49 43.8628L639.49 1.38279L649.75 1.38279L649.75 17.4628L666.31 17.4628L666.31 1.38279L676.57 1.38279L676.57 43.8628L666.31 43.8628Z" fill="#eb7a00" fill-rule="nonzero" opacity="0.986" stroke="none"/>
    <path d="M685.33 43.8628L685.33 1.38279L695.65 1.38279L695.65 43.8628L685.33 43.8628Z" fill="#eb7a00" fill-rule="nonzero" opacity="0.986" stroke="none"/>
    <path d="M736.63 14.4628C736.63 16.9428 736.17 19.0328 735.25 20.7328C734.33 22.4328 733.09 23.8028 731.53 24.8428C729.97 25.8828 728.17 26.6428 726.13 27.1228C724.09 27.6028 721.97 27.8428 719.77 27.8428L714.67 27.8428L714.67 43.8628L704.41 43.8628L704.41 1.38279L720.01 1.38279C722.33 1.38279 724.5 1.61279 726.52 2.07279C728.54 2.53279 730.3 3.27279 731.8 4.29279C733.3 5.31279 734.48 6.65279 735.34 8.31279C736.2 9.97279 736.63 12.0228 736.63 14.4628ZM726.37 14.5228C726.37 13.5228 726.17 12.7028 725.77 12.0628C725.37 11.4228 724.83 10.9228 724.15 10.5628C723.47 10.2028 722.7 9.96279 721.84 9.84279C720.98 9.72279 720.09 9.66279 719.17 9.66279L714.67 9.66279L714.67 19.6828L718.99 19.6828C719.95 19.6828 720.87 19.6028 721.75 19.4428C722.63 19.2828 723.42 19.0028 724.12 18.6028C724.82 18.2028 725.37 17.6728 725.77 17.0128C726.17 16.3528 726.37 15.5228 726.37 14.5228Z" fill="#eb7a00" fill-rule="nonzero" opacity="0.986" stroke="none"/>
  </g>
</svg>
