<?xml version="1.0" standalone="no"?>
<!DOCTYPE svg PUBLIC "-//W3C//DTD SVG 20010904//EN"
 "http://www.w3.org/TR/2001/REC-SVG-20010904/DTD/svg10.dtd">
<svg version="1.0" xmlns="http://www.w3.org/2000/svg"
 width="260.000000pt" height="260.000000pt" viewBox="0 0 260.000000 260.000000"
 preserveAspectRatio="xMidYMid meet">
<metadata>
Created by potrace 1.14, written by Peter Selinger 2001-2017
</metadata>
<g transform="translate(0.000000,260.000000) scale(0.100000,-0.100000)"
fill="#000000" stroke="none">
<path d="M1110 2374 c-36 -8 -75 -17 -87 -20 -48 -10 -169 -58 -232 -91 -131
-70 -270 -187 -347 -289 -16 -22 -32 -41 -35 -44 -19 -16 -103 -177 -129 -249
-46 -125 -62 -212 -66 -351 -8 -313 101 -586 325 -808 153 -153 386 -270 591
-299 68 -10 281 -10 335 0 22 4 55 10 74 13 83 14 337 123 361 154 3 4 12 11
21 16 32 18 105 80 163 139 192 196 302 466 304 748 2 414 -225 788 -594 977
-74 38 -199 83 -262 95 -15 3 -38 8 -52 11 -56 14 -305 12 -370 -2z"/>
</g>
</svg>
